<svg id="Layer_1" data-name="Layer 1" xmlns="http://www.w3.org/2000/svg" viewBox="0 0 119.48 92.69"><defs><style>.cls-1{fill:none;}.cls-2{fill:#3d3835;}</style></defs><path class="cls-1" d="M38.41,55.27a14.56,14.56,0,0,0,.08,1.49,4.42,4.42,0,0,0,.34,1.3,2.59,2.59,0,0,0,.67.93,1.61,1.61,0,0,0,1.09.36A2.74,2.74,0,0,0,42,59a4.35,4.35,0,0,0,1.13-.93,6.24,6.24,0,0,0,.9-1.3,11.77,11.77,0,0,0,.7-1.53l-.57.06a5.72,5.72,0,0,1-.61,0,4.21,4.21,0,0,1-2.75-.94A6.16,6.16,0,0,1,39,52c-.17.59-.31,1.17-.42,1.73A7.56,7.56,0,0,0,38.41,55.27Z" transform="translate(-1.1 -0.48)"/><path class="cls-1" d="M41.47,51.41a2.75,2.75,0,0,0,1.08,1,4.33,4.33,0,0,0,2,.39,3,3,0,0,0,.42,0l.42-.06c.09-.36.16-.69.23-1a3.39,3.39,0,0,0,.11-.77,9,9,0,0,0,0-1.64,6.89,6.89,0,0,0-.32-1.53,3.49,3.49,0,0,0-.59-1.14A1.07,1.07,0,0,0,44,46.2a3,3,0,0,0-1.53.44,5.23,5.23,0,0,0-1.36,1.24,2.36,2.36,0,0,0-.13.8,14,14,0,0,0,.08,1.41A3.53,3.53,0,0,0,41.47,51.41Z" transform="translate(-1.1 -0.48)"/><path class="cls-1" d="M57.35,52.35c.39-.26.78-.55,1.17-.86A11.32,11.32,0,0,0,61,49.06a4.23,4.23,0,0,0,.8-1.81,1.68,1.68,0,0,0-.17-1.15.81.81,0,0,0-.71-.36,2.19,2.19,0,0,0-1.2.5,6.19,6.19,0,0,0-1.36,1.45A12.35,12.35,0,0,0,57.14,50a12.83,12.83,0,0,0-.88,3.13C56.59,52.88,57,52.62,57.35,52.35Z" transform="translate(-1.1 -0.48)"/><path class="cls-1" d="M89.64,51.49a11.78,11.78,0,0,0,2.52-2.43,4.36,4.36,0,0,0,.8-1.81,1.74,1.74,0,0,0-.17-1.15.83.83,0,0,0-.72-.36,2.19,2.19,0,0,0-1.19.5,6.43,6.43,0,0,0-1.37,1.45A12.35,12.35,0,0,0,88.25,50a13.78,13.78,0,0,0-.88,3.13l1.09-.78C88.85,52.09,89.25,51.8,89.64,51.49Z" transform="translate(-1.1 -0.48)"/><path class="cls-2" d="M61.32,92.12A45.42,45.42,0,0,1,24.49,73.18l-.85.61a46.33,46.33,0,0,0,75.37,0l-.86-.61A45.42,45.42,0,0,1,61.32,92.12Z" transform="translate(-1.1 -0.48)"/><path class="cls-2" d="M61.32,1.52A45.31,45.31,0,0,1,98.74,21.29l.86-.59A46.35,46.35,0,0,0,23,20.7l.86.59A45.32,45.32,0,0,1,61.32,1.52Z" transform="translate(-1.1 -0.48)"/><path class="cls-2" d="M27.91,70.73l-.43.31a41.61,41.61,0,0,0,67.68,0l-.43-.31a41.06,41.06,0,0,1-66.82,0Z" transform="translate(-1.1 -0.48)"/><path class="cls-2" d="M61.32,5.21A41.62,41.62,0,0,0,27,23.37l.43.29a41.09,41.09,0,0,1,67.88,0l.44-.29A41.65,41.65,0,0,0,61.32,5.21Z" transform="translate(-1.1 -0.48)"/><path d="M11.83,53.82c-.23-.51-.48-1-.76-1.57s-.54-1-.8-1.56a12.45,12.45,0,0,1-.54-1.3c-.14-.39-.29-.85-.44-1.38a10.63,10.63,0,0,1-.36-1.77c.42-.5.74-.91,1-1.24a7.27,7.27,0,0,0,.5-.81c.11-.23.2-.41.25-.55a1,1,0,0,0-.25-.82,3.64,3.64,0,0,0-.88-.73,1.8,1.8,0,0,0-1.51,0A6.07,6.07,0,0,0,6.37,43,7.72,7.72,0,0,0,5,44.42a4.38,4.38,0,0,0-.75,1.36A1.55,1.55,0,0,0,4.33,47a1.24,1.24,0,0,1,.23.88,5.14,5.14,0,0,1-.46.74c-.28.4-.59.87-.92,1.38s-.67,1-1,1.52-.59.84-.76,1.07a1.44,1.44,0,0,0-.31.86.72.72,0,0,0,.23.54.56.56,0,0,0,.52.13,1.29,1.29,0,0,0,.66-.44c.14-.17.39-.48.75-.95s.75-1,1.16-1.51.78-1.07,1.13-1.57.59-.87.73-1.09a4.48,4.48,0,0,1,.24.6c.09.3.2.6.31.91s.25.75.42,1.17.43,1.18.71,1.85.54,1.34.78,2A13.11,13.11,0,0,1,9.27,57a2.66,2.66,0,0,1,0,1.33,1.77,1.77,0,0,1-.53.75,3,3,0,0,1-.75.46,2,2,0,0,1-.8.17,1.07,1.07,0,0,1-.65-.17,2,2,0,0,1-.46-.63c-.15-.28-.33-.66-.55-1.15a18.12,18.12,0,0,1-.76-2l-.88.3a2.6,2.6,0,0,0-.59.25l-.42.29a4.58,4.58,0,0,0-.63.67,7.25,7.25,0,0,0-.46.8,1.32,1.32,0,0,0,.06,1.09,6.23,6.23,0,0,0,.84,1.45,5.68,5.68,0,0,0,1.39,1.28,3,3,0,0,0,1.7.55A4.83,4.83,0,0,0,8.2,61.7a9.27,9.27,0,0,0,2.05-1.62,11.13,11.13,0,0,0,1.51-1.95,5.18,5.18,0,0,0,.74-1.72,2.41,2.41,0,0,0-.13-1.14C12.23,54.82,12.05,54.34,11.83,53.82Z" transform="translate(-1.1 -0.48)"/><path d="M26.15,47.29a1,1,0,0,1,1.09,1,6.59,6.59,0,0,1-.19,2.29,25.49,25.49,0,0,1-.84,2.79c-.35,1-.62,1.8-.82,2.5a11.45,11.45,0,0,0-.48,2.79,3.19,3.19,0,0,0,.73,2.08,2.27,2.27,0,0,0,1.7,1.09,4.58,4.58,0,0,0,2.12-.71,17.28,17.28,0,0,0,2.36-1.6c.81-.64,1.61-1.33,2.41-2.06.48-.43.94-.88,1.38-1.34,0-.58-.06-1.15-.06-1.68,0-.21,0-.43,0-.66l-.12.14c-.39.43-.8.86-1.22,1.28s-.8.77-1.13,1.05a12.68,12.68,0,0,1-3.34,2.16c-.74.24-1.24.13-1.49-.32a1.38,1.38,0,0,1-.09-1.17c.14-.45.34-1,.59-1.64.37-.92.68-1.74.95-2.44s.48-1.33.65-1.91.3-1.09.4-1.57a6.76,6.76,0,0,0,.14-1.39,5.86,5.86,0,0,0-.16-1.82,3,3,0,0,0-.61-1.18,2.4,2.4,0,0,0-.93-.63,3.4,3.4,0,0,0-1.11-.19,4.8,4.8,0,0,0-2.14.49,9.44,9.44,0,0,0-1.91,1.21,12.71,12.71,0,0,0-1.66,1.62,16.55,16.55,0,0,0-1.3,1.72c.61-2.43,1.29-4.72,2-6.86s1.39-4.35,2-6.62c.14-.61.26-1.19.38-1.72s.09-.88.1-1.3a1,1,0,0,0-.23-.84.47.47,0,0,0-.38-.27,2.48,2.48,0,0,0-.63-.07,4.46,4.46,0,0,0-.84.09,7.62,7.62,0,0,0-.92.21,6.51,6.51,0,0,0-.78.21,2.86,2.86,0,0,0-.73.33,6.53,6.53,0,0,1,.12,1.3A12.52,12.52,0,0,1,21.11,35c-.06.5-.13,1-.21,1.55q-.25,1.14-.93,4.08-.59,2.48-1.68,7.18t-3,12.47a1.74,1.74,0,0,0,.38.73,2.5,2.5,0,0,0,.51.44,2.2,2.2,0,0,0,.63.26,5.65,5.65,0,0,0,.58,0,1.91,1.91,0,0,0,.55-.09,1.36,1.36,0,0,0,.54-.29c.2-.81.4-1.74.61-2.79s.42-2,.61-2.92c.23-1.06.45-2.14.67-3.23.37-.59.79-1.19,1.26-1.81A16.19,16.19,0,0,1,23.14,49a8.51,8.51,0,0,1,1.56-1.19A2.87,2.87,0,0,1,26.15,47.29Z" transform="translate(-1.1 -0.48)"/><path d="M35.61,56.07c0,.25,0,.5,0,.76a7.17,7.17,0,0,0,.59,2.39,4.5,4.5,0,0,0,1.47,1.83,4.42,4.42,0,0,0,2.7.73,6.39,6.39,0,0,0,2.71-.57,7.29,7.29,0,0,0,2.23-1.57,9.88,9.88,0,0,0,1.7-2.39,15,15,0,0,0,1.13-3A12.86,12.86,0,0,0,50.84,53c.85-.51,1.64-1,2.38-1.59.11-.28.23-.57.37-.86A16.68,16.68,0,0,1,55,48.16l-.55.44q-.84.63-1.83,1.23c-.65.41-1.33.8-2,1.16a21.82,21.82,0,0,1-2,.92c0-.22.06-.49.09-.82s0-.59,0-.82a6.55,6.55,0,0,0-.55-2.79,6.47,6.47,0,0,0-1.32-1.91,5.8,5.8,0,0,0-1.6-1.13A4.26,4.26,0,0,0,43.87,44l-.23-.09a.85.85,0,0,0-.23,0,7.07,7.07,0,0,0-1.56.19,6.62,6.62,0,0,0-1.49.55,4.76,4.76,0,0,0-1.22.9,3.28,3.28,0,0,0-.77,1.26,9.8,9.8,0,0,0-1.24,1.85,13.35,13.35,0,0,0-.86,2,15.33,15.33,0,0,0-.53,2c-.07.39-.12.75-.15,1.1s0,.45,0,.66C35.55,54.92,35.58,55.49,35.61,56.07Zm5.49-8.19a5.23,5.23,0,0,1,1.36-1.24A3,3,0,0,1,44,46.2a1.07,1.07,0,0,1,.86.44,3.49,3.49,0,0,1,.59,1.14,6.89,6.89,0,0,1,.32,1.53,9,9,0,0,1,0,1.64,3.39,3.39,0,0,1-.11.77c-.07.3-.14.63-.23,1l-.42.06a3,3,0,0,1-.42,0,4.33,4.33,0,0,1-2-.39,2.75,2.75,0,0,1-1.08-1,3.53,3.53,0,0,1-.42-1.32A14,14,0,0,1,41,48.68,2.36,2.36,0,0,1,41.1,47.88Zm-.32,6.49a4.21,4.21,0,0,0,2.75.94,5.72,5.72,0,0,0,.61,0l.57-.06a11.77,11.77,0,0,1-.7,1.53,6.24,6.24,0,0,1-.9,1.3A4.35,4.35,0,0,1,42,59a2.74,2.74,0,0,1-1.39.36A1.61,1.61,0,0,1,39.5,59a2.59,2.59,0,0,1-.67-.93,4.42,4.42,0,0,1-.34-1.3,14.56,14.56,0,0,1-.08-1.49,7.56,7.56,0,0,1,.17-1.59c.11-.56.25-1.14.42-1.73A6.16,6.16,0,0,0,40.78,54.37Z" transform="translate(-1.1 -0.48)"/><path d="M53.22,51.41a10.44,10.44,0,0,0-.7,2.77,8.21,8.21,0,0,0,.31,3.57,6.56,6.56,0,0,0,1.41,2.39,5.78,5.78,0,0,0,1.95,1.37,5.37,5.37,0,0,0,2,.44,8.86,8.86,0,0,0,3.63-.84,18.71,18.71,0,0,0,3.65-2.21,25.14,25.14,0,0,0,3.38-3.1c.7-.76,1.33-1.55,1.93-2.34l-.2.26a1.29,1.29,0,0,1-.66.44A.56.56,0,0,1,69.4,54a.72.72,0,0,1-.23-.54,1.44,1.44,0,0,1,.31-.86l.11-.15-1,1.11a31.91,31.91,0,0,1-2.77,2.67,20.7,20.7,0,0,1-3.05,2.18,5.86,5.86,0,0,1-3,.91,4.9,4.9,0,0,1-1.32-.19,3.08,3.08,0,0,1-1.15-.63,3.4,3.4,0,0,1-.84-1.16,4.45,4.45,0,0,1-.38-1.76c.42-.31.91-.65,1.47-1l1.76-1.2c.56-.39,1.16-.82,1.79-1.3a14.06,14.06,0,0,0,1.78-1.6,9.55,9.55,0,0,0,1.45-2,6.06,6.06,0,0,0,.73-2.39,2.55,2.55,0,0,0-.63-2,3,3,0,0,0-2.31-.79,6.15,6.15,0,0,0-3.33,1,12.84,12.84,0,0,0-3,2.64c-.29.36-.54.74-.81,1.12a16.68,16.68,0,0,0-1.41,2.39C53.45,50.84,53.33,51.13,53.22,51.41Zm5.18-3.72a6.19,6.19,0,0,1,1.36-1.45,2.19,2.19,0,0,1,1.2-.5.81.81,0,0,1,.71.36,1.68,1.68,0,0,1,.17,1.15,4.23,4.23,0,0,1-.8,1.81,11.32,11.32,0,0,1-2.52,2.43c-.39.31-.78.6-1.17.86s-.76.53-1.09.78A12.83,12.83,0,0,1,57.14,50,12.35,12.35,0,0,1,58.4,47.69Z" transform="translate(-1.1 -0.48)"/><path d="M69.17,53.49a.72.72,0,0,0,.23.54.56.56,0,0,0,.52.13,1.29,1.29,0,0,0,.66-.44l.2-.26.55-.69c.36-.46.75-1,1.16-1.51s.78-1.07,1.13-1.57.59-.87.73-1.09a4.48,4.48,0,0,1,.24.6c.09.3.2.6.31.91s.25.75.42,1.17.43,1.18.71,1.85.54,1.34.78,2A13.11,13.11,0,0,1,77.34,57a2.66,2.66,0,0,1,0,1.33,1.77,1.77,0,0,1-.53.75,3,3,0,0,1-.75.46,2,2,0,0,1-.8.17,1.07,1.07,0,0,1-.65-.17,2.11,2.11,0,0,1-.47-.63c-.14-.28-.32-.66-.54-1.15a18.12,18.12,0,0,1-.76-2L72,56a2.6,2.6,0,0,0-.59.25l-.42.29a4.58,4.58,0,0,0-.63.67,7.25,7.25,0,0,0-.46.8,1.32,1.32,0,0,0,.06,1.09,6.23,6.23,0,0,0,.84,1.45,5.68,5.68,0,0,0,1.39,1.28,3,3,0,0,0,1.7.55,4.79,4.79,0,0,0,2.41-.67,9.33,9.33,0,0,0,2.06-1.62,11.13,11.13,0,0,0,1.51-1.95,5.18,5.18,0,0,0,.74-1.72,2.54,2.54,0,0,0-.13-1.14c-.14-.45-.32-.93-.54-1.45s-.48-1-.76-1.57-.54-1-.8-1.56a12.45,12.45,0,0,1-.54-1.3c-.14-.39-.29-.85-.44-1.38A10.63,10.63,0,0,1,77,46.24c.42-.5.74-.91,1-1.24a7.27,7.27,0,0,0,.5-.81c.11-.23.19-.41.25-.55a1,1,0,0,0-.25-.82,3.84,3.84,0,0,0-.88-.73,1.8,1.8,0,0,0-1.51,0,6.07,6.07,0,0,0-1.64.94,7.72,7.72,0,0,0-1.39,1.41,4.38,4.38,0,0,0-.75,1.36A1.55,1.55,0,0,0,72.4,47a1.24,1.24,0,0,1,.23.88,5.14,5.14,0,0,1-.46.74c-.28.4-.59.87-.92,1.38s-.67,1-1,1.52-.48.69-.65.92l-.11.15A1.44,1.44,0,0,0,69.17,53.49Z" transform="translate(-1.1 -0.48)"/><path d="M99.68,54.16c.2-.41.39-.81.59-1.2-.19.21-.36.41-.57.63a33.4,33.4,0,0,1-2.77,2.67,20.7,20.7,0,0,1-3.05,2.18,5.89,5.89,0,0,1-3,.91,4.9,4.9,0,0,1-1.32-.19,3.12,3.12,0,0,1-1.16-.63,3.69,3.69,0,0,1-.84-1.16,4.63,4.63,0,0,1-.38-1.76c.42-.31.91-.65,1.47-1l1.77-1.2c.56-.39,1.15-.82,1.78-1.3A14.14,14.14,0,0,0,94,50.48a9.16,9.16,0,0,0,1.44-2,5.92,5.92,0,0,0,.74-2.39,2.55,2.55,0,0,0-.63-2,3,3,0,0,0-2.31-.79,6.21,6.21,0,0,0-3.34,1,12.8,12.8,0,0,0-3,2.64,17,17,0,0,0-2.23,3.51,11.25,11.25,0,0,0-1.07,3.63A8.2,8.2,0,0,0,84,57.75a6.56,6.56,0,0,0,1.41,2.39,5.68,5.68,0,0,0,2,1.37,5.32,5.32,0,0,0,2,.44,8.79,8.79,0,0,0,3.63-.84,18.48,18.48,0,0,0,3.66-2.21c.44-.33.86-.7,1.28-1.07l.48-1ZM88.25,50a12.35,12.35,0,0,1,1.26-2.31,6.43,6.43,0,0,1,1.37-1.45,2.19,2.19,0,0,1,1.19-.5.83.83,0,0,1,.72.36A1.74,1.74,0,0,1,93,47.25a4.36,4.36,0,0,1-.8,1.81,11.78,11.78,0,0,1-2.52,2.43c-.39.31-.79.6-1.18.86l-1.09.78A13.78,13.78,0,0,1,88.25,50Z" transform="translate(-1.1 -0.48)"/><path d="M120.25,50.65a.75.75,0,0,0-.59,0,1.14,1.14,0,0,0-.54.46c-.17.23-.43.59-.78,1.1s-.78,1.07-1.28,1.7-1,1.27-1.64,1.93a21.67,21.67,0,0,1-1.78,1.8A11.25,11.25,0,0,1,111.87,59a3,3,0,0,1-1.57.52c-.64,0-1-.11-1.18-.33a2.46,2.46,0,0,1-.29-.88,3.24,3.24,0,0,1,.5-1.89c.4-.7.79-1.33,1.18-1.89.64-.9,1.19-1.73,1.64-2.48a3.38,3.38,0,0,0,.54-2.18,7.38,7.38,0,0,0-.18-1.12,4.45,4.45,0,0,0-.45-1.13,2.67,2.67,0,0,0-.75-.88,1.86,1.86,0,0,0-1.18-.36,3.49,3.49,0,0,0-.86.08,3.39,3.39,0,0,1-.94.09,1.61,1.61,0,0,1-.68-.11,2.25,2.25,0,0,1-.33-.19,3.91,3.91,0,0,0,.63-1.51,4,4,0,0,0,.08-1.38,3.56,3.56,0,0,0-.56-1.56,1.84,1.84,0,0,0-1.66-.75,2,2,0,0,0-1.3.58A7.29,7.29,0,0,0,103.29,43a8.08,8.08,0,0,0-.88,1.7,3,3,0,0,0-.26,1.43,1.65,1.65,0,0,0,.26.82c.11.12.32.33.63.61-.17.31-.44.8-.8,1.49s-.77,1.46-1.2,2.33L100.27,53c-.2.39-.39.79-.59,1.2l-1.33,2.69-.48,1c-.21.41-.4.8-.57,1.14l-.56,1.13a1.23,1.23,0,0,0-.17.84.59.59,0,0,0,.36.44.83.83,0,0,0,.63,0,1.54,1.54,0,0,0,.65-.61c.08-.11.3-.45.65-1l1.28-2.1,1.62-2.66c.57-1,1.11-1.87,1.63-2.73s1-1.63,1.37-2.27.64-1.06.75-1.26a5.18,5.18,0,0,1,.72.25,2.29,2.29,0,0,0,.92.17l.57,0a1.68,1.68,0,0,1,.29,0l.21,0a1.63,1.63,0,0,1,.36,0,.56.56,0,0,1,.54.29,1.26,1.26,0,0,1,.17.67,3.25,3.25,0,0,1-.44,1.45c-.29.57-.68,1.27-1.15,2.08-.2.39-.42.79-.65,1.2s-.47.81-.68,1.21-.39.8-.54,1.18a3.24,3.24,0,0,0-.27,1.07,4.37,4.37,0,0,0,.14,1.36,4.17,4.17,0,0,0,.63,1.35,3.87,3.87,0,0,0,1.16,1,3.48,3.48,0,0,0,1.8.42,4.63,4.63,0,0,0,2.21-.63,13.52,13.52,0,0,0,2.31-1.62A22.6,22.6,0,0,0,116,57.9c.7-.8,1.34-1.58,1.91-2.33s1.07-1.45,1.47-2.06.69-1.07.86-1.35a1.63,1.63,0,0,0,.32-1A.66.66,0,0,0,120.25,50.65Z" transform="translate(-1.1 -0.48)"/></svg>