<?xml version="1.0" encoding="UTF-8"?>
<!-- Svg Vector Icons : http://www.onlinewebfonts.com/icon -->
<!DOCTYPE svg PUBLIC "-//W3C//DTD SVG 1.1//EN" "http://www.w3.org/Graphics/SVG/1.1/DTD/svg11.dtd">
<svg version="1.1" xmlns="http://www.w3.org/2000/svg" xmlns:xlink="http://www.w3.org/1999/xlink" x="0px" y="0px" viewBox="0 0 1000 1000" enable-background="new 0 0 1000 1000" xml:space="preserve">
<metadata> Svg Vector Icons : http://www.onlinewebfonts.com/icon </metadata>
<g><g><path d="M722.7,10c35,0,68.8,6.6,101.4,19.8c32.6,13.2,61.8,32.7,87.5,58.5c25.8,25.8,45.2,54.9,58.5,87.5c13.2,32.6,19.8,66.4,19.8,101.4c0,34.8-6.7,68.6-20,101.4c-13.3,32.8-32.8,62-58.3,87.5L778.1,599.9c-2.6,2.6-6.4,6.1-11.5,10.8c-24.8,22-52.6,38.8-83.2,50.3c-30.6,11.5-62.1,17.2-94.3,17.2c-40.6,0-79-8.7-115.2-26.1c-27.1-12.8-51.7-30.2-73.8-52.2c-22-22-39.4-46.6-52.2-73.8c17.4-17.4,38.4-26.1,63-26.1c8.6,0,17.3,1.3,26.1,3.8c15.1,24.4,34.8,44.1,59.2,59.2c28.5,17.4,59.5,26.1,92.9,26.1c23.2,0,45.7-4.4,67.5-13.2s41.3-21.8,58.5-39l133.6-133.6c17.2-17.2,30.2-36.7,39-58.5c8.8-21.8,13.2-44.3,13.2-67.5c0-23.2-4.4-45.7-13.2-67.5c-8.8-21.8-21.8-41.3-39-58.5c-17.2-17.2-36.7-30.2-58.5-39c-21.8-8.8-44.3-13.2-67.5-13.2s-45.7,4.4-67.5,13.2c-21.8,8.8-41.3,21.8-58.5,39l-93.6,93.6c-29.7-8.1-60.4-12.2-92.2-12.2c-5.1,0-12.3,0.2-21.6,0.7c4.6-5.1,8.2-8.9,10.8-11.5L533.8,88.3c25.5-25.5,54.7-45,87.5-58.3C654.1,16.7,687.9,10,722.7,10L722.7,10z M410.9,321.8c40.6,0,79,8.7,115.2,26.1c27.1,12.8,51.7,30.2,73.8,52.2c22,22,39.4,46.6,52.2,73.8c-17.4,17.4-38.4,26.1-63,26.1c-8.6,0-17.3-1.3-26.1-3.8c-15.1-24.4-34.8-44.1-59.2-59.2c-28.5-17.4-59.5-26.1-92.9-26.1c-23.2,0-45.7,4.4-67.5,13.2c-21.8,8.8-41.3,21.8-58.5,39L151.3,596.7c-17.2,17.2-30.2,36.7-39,58.5s-13.2,44.3-13.2,67.5c0,23.2,4.4,45.7,13.2,67.5s21.8,41.3,39,58.5c17.2,17.2,36.7,30.2,58.5,39c21.8,8.8,44.3,13.2,67.5,13.2c23.2,0,45.7-4.4,67.5-13.2c21.8-8.8,41.3-21.8,58.5-39l93.6-93.6c29.7,8.1,60.4,12.2,92.2,12.2c5.1,0,12.3-0.2,21.6-0.7c-4.6,5.1-8.2,8.9-10.8,11.5L466.2,911.7c-25.8,25.8-54.9,45.2-87.5,58.5c-32.6,13.2-66.4,19.8-101.4,19.8c-34.8,0-68.6-6.7-101.4-20c-32.8-13.3-62-32.8-87.5-58.3c-25.8-25.8-45.2-54.9-58.5-87.5C16.6,791.6,10,757.8,10,722.7c0-35,6.6-68.8,19.8-101.4c13.2-32.6,32.7-61.8,58.5-87.5l133.6-133.6c2.6-2.6,6.4-6.1,11.5-10.8c24.8-22,52.5-38.8,83.2-50.3C347.2,327.6,378.7,321.8,410.9,321.8L410.9,321.8z"/></g></g>
</svg>