<?xml version="1.0" encoding="utf-8"?>
<!-- Svg Vector Icons : http://www.onlinewebfonts.com/icon -->
<!DOCTYPE svg PUBLIC "-//W3C//DTD SVG 1.1//EN" "http://www.w3.org/Graphics/SVG/1.1/DTD/svg11.dtd">
<svg version="1.1" xmlns="http://www.w3.org/2000/svg" xmlns:xlink="http://www.w3.org/1999/xlink" x="0px" y="0px" viewBox="0 0 1000 1000" enable-background="new 0 0 1000 1000" xml:space="preserve">
<metadata> Svg Vector Icons : http://www.onlinewebfonts.com/icon </metadata>
<g><path d="M979,180.8l-0.2-0.2c-14.7-14.7-38.5-14.7-53.3,0l-559,559l-290.9-291c-15.6-15.6-40-16.5-54.5-2.1l-0.8,0.8c-14.4,14.4-13.6,38.8,2.1,54.4L338.5,818c0.3,0.3,0.6,0.3,0.9,0.6c0.2,0.3,0.3,0.5,0.5,0.8l0.2,0.2c10.5,10.5,25.8,13.2,39,8.6c0.5-0.1,1-0.1,1.5-0.3c2.1-0.8,3.9-2.5,5.8-3.8c2.2-1.4,4.6-2.3,6.4-4.2l0.4-0.4l0.4-0.4l585.2-585.2C993.7,219.4,993.7,195.5,979,180.8z"/></g>
</svg>