<svg width="489" height="227" viewBox="0 0 489 227" fill="none" xmlns="http://www.w3.org/2000/svg"><path d="M142.56 8.414v168h-37.44l-68.16-109.2v109.2H0v-168h37.44l67.92 109.68V8.414h37.2zm27.071 39.12c0-11.36 2.08-20.48 6.24-27.36 4.32-6.88 10.48-11.68 18.48-14.4 8-2.72 17.76-3.44 29.28-2.16v31.2c-6.4-.96-11.2-.08-14.4 2.64-3.04 2.56-4.56 6.8-4.56 12.72v6.24h19.92v30.96h-19.92v89.04h-35.04v-89.04h-13.68v-30.96h13.68v-8.88zm76.78 8.88v-33.6h35.76v33.6h24.72v30.96h-24.72v43.2c0 5.44 1.2 9.28 3.6 11.52 2.56 2.24 5.76 3.44 9.6 3.6 3.84 0 7.68-.32 11.52-.96v30.48c-8.16 1.44-15.92 1.84-23.28 1.2-7.36-.48-13.84-2.4-19.44-5.76-5.44-3.36-9.76-8.32-12.96-14.88-3.2-6.56-4.8-14.96-4.8-25.2v-43.2h-16.8v-30.96h16.8zm155.531 0h37.92l-71.04 168h-35.76l23.76-53.52-47.52-114.48h39.12l26.64 71.76 26.88-71.76zm55.556 121.92c-6.72 0-12.16-2-16.32-6-4.16-4.16-6.24-9.12-6.24-14.88 0-5.92 2.08-10.88 6.24-14.88 4.16-4.16 9.6-6.24 16.32-6.24 6.56 0 11.92 2.08 16.08 6.24 4.16 4 6.24 8.96 6.24 14.88 0 5.76-2.08 10.72-6.24 14.88-4.16 4-9.52 6-16.08 6z" fill="#323951"/></svg>